<?xml version="1.0" encoding="UTF-8"?>
<svg width="14px" height="14px" viewBox="0 0 14 14" version="1.1" xmlns="http://www.w3.org/2000/svg" xmlns:xlink="http://www.w3.org/1999/xlink">
    <!-- Generator: Sketch 52.2 (67145) - http://www.bohemiancoding.com/sketch -->
    <title>delete</title>
    <desc>Created with Sketch.</desc>
    <g id="审批" stroke="none" stroke-width="1" fill="none" fill-rule="evenodd">
        <g id="单据付款信息-copy" transform="translate(-328.000000, -376.000000)">
            <g id="Group-16" transform="translate(295.000000, 350.000000)">
                <g id="Group-15" transform="translate(26.000000, 26.000000)">
                    <g id="delete" transform="translate(7.000000, 0.000000)">
                        <rect id="Rectangle" fill-rule="nonzero" x="0" y="0" width="14" height="14"></rect>
                        <path d="M8.57568312,10.4918934 C8.12929917,10.4918934 7.76399122,10.161998 7.76305931,9.75568605 L7.74908069,5.57235089 C7.74814878,5.37012685 7.84040768,5.17349425 8.00069586,5.03463996 C8.15166496,4.90510474 8.35016137,4.83241591 8.55890877,4.83148401 C9.00808844,4.83148401 9.37339639,5.16137945 9.3743283,5.56769135 L9.38830692,9.75102651 C9.38923883,9.95325055 9.29697993,10.1489512 9.13669175,10.2887374 C8.98572265,10.4192046 8.78722624,10.4909615 8.57847884,10.4918934 L8.57568312,10.4918934 Z M5.15837636,10.5041946 C4.71199241,10.5041946 4.34668446,10.1742991 4.34575256,9.76798724 L4.33177394,5.58465208 C4.33084203,5.38149613 4.42216901,5.18486353 4.5833891,5.04600923 C4.73435821,4.91554211 4.93285462,4.84378519 5.14253392,4.84285328 C5.5917136,4.84285328 5.95608964,5.17274873 5.95702154,5.57906063 L5.97100017,9.7633277 C5.97193207,9.96461983 5.87967318,10.1612524 5.719385,10.3010386 C5.5684159,10.4305738 5.36991948,10.5032627 5.16117208,10.5041946 L5.15837636,10.5041946 Z M4.82708306,1.8909414 L8.8464024,1.87696278 L8.84547049,1.60764136 L4.82615115,1.61975616 L4.82708306,1.8909414 Z M2.61752911,12.0226455 L11.2749547,11.9928245 L11.2460656,3.47984459 L2.58957187,3.50873374 L2.61752911,12.0226455 Z M2.33143334,13.6273912 C1.60920462,13.6273912 1.01837492,13.0393572 1.01651111,12.3161966 L0.985758143,3.51432519 L0.812423249,3.5152571 C0.365107394,3.5152571 0.000731352717,3.15274488 -0.000200555316,2.70822474 C-0.00113246335,2.49202208 0.0836711676,2.28793422 0.235572177,2.1341694 C0.388405094,1.98040457 0.590629138,1.89653285 0.806831801,1.89560094 L3.22513315,1.88721377 L3.22326933,1.33552421 C3.22047361,0.61143167 3.80943948,0.0187381607 4.53446393,0.0150105285 L9.13156626,0.0001 C9.85938643,0.0001 10.4502161,0.588133969 10.4520799,1.3112946 L10.4539438,1.86298416 L12.8591984,1.85459699 C13.0809925,1.85459699 13.2953313,1.94033252 13.4472324,2.09130163 C13.6019291,2.24506645 13.6858008,2.4482224 13.6858008,2.66256125 C13.6876646,3.10801329 13.3186291,3.47238933 12.8647898,3.47332124 L12.8517431,3.47332124 L12.8815642,12.2761245 C12.8843599,13.001149 12.295394,13.5938425 11.5703696,13.5957063 L2.33143334,13.6273912 Z" id="Combined-Shape" fill="#FF5B3E"></path>
                    </g>
                </g>
            </g>
        </g>
    </g>
</svg>