<?xml version="1.0" encoding="UTF-8"?>
<svg width="22px" height="22px" viewBox="0 0 22 22" version="1.1" xmlns="http://www.w3.org/2000/svg" xmlns:xlink="http://www.w3.org/1999/xlink">
    <!-- Generator: Sketch 52.2 (67145) - http://www.bohemiancoding.com/sketch -->
    <title>Group 6</title>
    <desc>Created with Sketch.</desc>
    <defs>
        <polygon id="path-1" points="0 0 18.0647 0 18.0647 19.99969 0 19.99969"></polygon>
        <linearGradient x1="50%" y1="0%" x2="50%" y2="100%" id="linearGradient-3">
            <stop stop-color="#5EE0D2" offset="0%"></stop>
            <stop stop-color="#41C6E7" offset="100%"></stop>
        </linearGradient>
    </defs>
    <g id="审批" stroke="none" stroke-width="1" fill="none" fill-rule="evenodd">
        <g id="10-审批" transform="translate(-16.000000, -399.000000)">
            <g id="Group-14-Copy" transform="translate(0.000000, 383.000000)">
                <g id="Group-19" transform="translate(16.000000, 16.000000)">
                    <g id="Group-6">
                        <rect id="Rectangle" fill-rule="nonzero" x="0" y="0" width="22" height="22"></rect>
                        <g id="Group-3" transform="translate(2.000000, 1.000000)">
                            <mask id="mask-2" fill="white">
                                <use xlink:href="#path-1"></use>
                            </mask>
                            <g id="Clip-2"></g>
                            <path d="M5.1614,2.66699 L12.9024,2.66699 C13.2592,2.66699 13.5482,2.96509 13.5482,3.33339 C13.5482,3.70169 13.2592,3.99919 12.9024,3.99919 L5.1614,3.99919 C4.8045,3.99919 4.5162,3.70169 4.5162,3.33339 C4.5162,2.96509 4.8045,2.66699 5.1614,2.66699 Z M4.5162,15.33249 C3.8034,15.33249 3.2258,14.73589 3.2258,13.99969 C3.2258,13.26349 3.8031,12.66619 4.5162,12.66619 C5.2292,12.66619 5.8063,13.26379 5.8063,13.99999 C5.8063,14.73619 5.2289,15.33279 4.5165,15.33279 L4.5162,15.33249 Z M13.5486,15.33249 C12.8358,15.33249 12.2574,14.73589 12.2574,13.99969 C12.2574,13.26349 12.8355,12.66619 13.5486,12.66619 C14.2615,12.66619 14.839,13.26379 14.839,13.99969 C14.839,14.73559 14.2615,15.33249 13.5486,15.33249 Z M16.7737,11.33329 L1.2905,11.33329 L1.2905,15.99799 C1.2905,16.36619 1.5794,16.66499 1.9357,16.66499 L2.5805,16.66499 L2.5805,17.66509 C2.5805,18.21739 3.0134,18.66519 3.5477,18.66519 C4.082,18.66519 4.5162,18.21739 4.5162,17.66509 L4.5162,16.66629 L13.5486,16.66629 L13.5486,17.66639 C13.5486,18.21869 13.9814,18.66649 14.5156,18.66649 C15.05,18.66649 15.4842,18.21869 15.4842,17.66639 L15.4842,16.66629 L16.1294,16.66629 C16.4849,16.66629 16.7739,16.36749 16.7739,15.99919 L16.7739,11.33469 L16.7737,11.33329 Z M16.7737,4.66689 C16.7737,2.82549 15.3299,1.33319 13.5486,1.33319 L4.5162,1.33319 C2.7348,1.33319 1.2898,2.82549 1.2898,4.66689 L1.2898,9.99989 L16.7733,9.99989 L16.7733,4.66719 L16.7737,4.66689 Z M16.7638,17.88889 C16.6542,19.07139 15.6874,19.99969 14.5154,19.99969 C13.3799,19.99969 12.4371,19.12939 12.2806,17.99979 L5.7831,17.99979 C5.6262,19.12939 4.6839,19.99969 3.5477,19.99969 C2.3754,19.99969 1.4092,19.07139 1.3006,17.88889 C0.5438,17.61749 0,16.87279 0,15.99919 L0,4.66719 C0,2.09359 2.0257,-1e-05 4.5162,-1e-05 L13.5486,-1e-05 C16.038,-1e-05 18.0647,2.09359 18.0647,4.66719 L18.0647,15.99919 C18.0647,16.87279 17.5202,17.61719 16.7642,17.88889 L16.7638,17.88889 Z" id="Fill-1" fill="url(#linearGradient-3)" mask="url(#mask-2)"></path>
                        </g>
                    </g>
                </g>
            </g>
        </g>
    </g>
</svg>