<?xml version="1.0" encoding="UTF-8"?>
<svg width="14px" height="14px" viewBox="0 0 14 14" version="1.1" xmlns="http://www.w3.org/2000/svg" xmlns:xlink="http://www.w3.org/1999/xlink">
    <!-- Generator: Sketch 52.2 (67145) - http://www.bohemiancoding.com/sketch -->
    <title>name@3x</title>
    <desc>Created with Sketch.</desc>
    <g id="审批" stroke="none" stroke-width="1" fill="none" fill-rule="evenodd">
        <g id="单据付款信息-copy" transform="translate(-21.000000, -120.000000)">
            <g id="Group-23" transform="translate(21.000000, 119.000000)">
                <g id="Group-22">
                    <g id="Group-21" transform="translate(0.000000, 1.000000)">
                        <rect id="Rectangle" fill-rule="nonzero" x="0" y="0" width="14" height="14"></rect>
                        <g id="Group-20" transform="translate(2.000000, 1.000000)">
                            <path d="M6.81256546,7.34316246 C6.73800473,7.31828935 6.26657292,7.10740993 6.56141739,6.2168267 L6.55714003,6.2168267 C7.32429523,5.42999861 7.91143533,4.16483927 7.91143533,2.91945537 C7.91143533,1.00371339 6.63089509,0 5.14287388,0 C3.65398841,0 2.38112398,1.00371339 2.38112398,2.91945537 C2.38112398,4.16999553 2.96403067,5.44031113 3.73626889,6.22541071 C4.03714853,7.01061282 3.49886108,7.3020149 3.38659518,7.3422982 C1.82830524,7.90455055 -8.8817842e-15,8.9254466 -8.8817842e-15,9.9343016 L-8.8817842e-15,10.3122762 C-8.8817842e-15,11.6871965 2.67854658,12 5.15746376,12 C7.64061436,12 10.2848835,11.6871965 10.2848835,10.3122762 L10.2848835,9.9343016 C10.2848835,8.89546117 8.4480382,7.88143526 6.81256546,7.34316246" id="Fill-1" fill="#FFFFFF"></path>
                            <path d="M3.80095344,6.24859442 C4.12294099,6.462301 5.91376357,6.57900587 6.43740366,6.24859442 C6.96104375,5.91818298 5.81554887,7.49672833 5.15421728,7.49672833 C4.49288568,7.49672833 3.4789659,6.03488785 3.80095344,6.24859442 Z" id="Path-2" fill-opacity="0.4" fill="#4390FF" fill-rule="nonzero"></path>
                        </g>
                    </g>
                </g>
            </g>
        </g>
    </g>
</svg>