<?xml version="1.0" encoding="UTF-8"?>
<svg width="26px" height="26px" viewBox="0 0 26 26" version="1.1" xmlns="http://www.w3.org/2000/svg" xmlns:xlink="http://www.w3.org/1999/xlink">
    <!-- Generator: Sketch 52.2 (67145) - http://www.bohemiancoding.com/sketch -->
    <title>pdf</title>
    <desc>Created with Sketch.</desc>
    <g id="审批" stroke="none" stroke-width="1" fill="none" fill-rule="evenodd">
        <g id="影像查看" transform="translate(-27.000000, -370.000000)">
            <g id="Group-3" transform="translate(15.000000, 277.000000)">
                <g id="pdf" transform="translate(12.000000, 93.000000)">
                    <rect id="Rectangle" fill="#000000" opacity="0" x="0" y="0" width="20.7797073" height="20.7797073"></rect>
                    <path d="M22.3703309,19.3987912 C20.4219473,19.2544665 18.545726,18.532843 17.0303164,17.2339205 C14.0716598,17.8833817 11.2573278,18.8214924 8.44299586,19.9760901 C6.20596277,23.9450198 4.11325439,25.9655658 2.30919544,25.9655658 C1.94838366,25.9655658 1.51540951,25.8934035 1.22676009,25.6769164 C0.432974155,25.3161046 0,24.5223186 0,23.7285327 C0,23.0790715 0.144324718,21.2750125 6.9997487,18.3163559 C8.58732058,15.4298616 9.81408065,12.4712049 10.8243537,9.36822351 C9.95840539,7.63632691 8.08218408,3.37874781 9.38110652,1.21387708 C9.81408065,0.420091143 10.680029,-0.0128830124 11.6181396,0.0592793342 C12.3397632,0.0592793342 13.0613868,0.420091118 13.4943609,0.997389991 C14.4324716,2.29631243 14.3603092,5.03848203 13.1335491,9.07957407 C14.2881468,11.2444448 15.8035564,13.1928285 17.6076153,14.8525627 C19.1230248,14.5639133 20.6384343,14.3474262 22.1538438,14.3474262 C25.5454747,14.4195885 26.0506112,16.0071604 25.9784488,16.9452711 C25.9784488,19.3987912 23.597091,19.3987912 22.3703309,19.3987912 Z M2.16487073,23.8728574 L2.38135782,23.8006951 C3.39163082,23.4398833 4.18541676,22.7182597 4.76271561,21.780149 C3.68028023,22.2131232 2.81433195,22.9347468 2.16487073,23.8728574 Z M11.7624643,2.22415009 L11.5459772,2.22415009 C11.4738149,2.22415009 11.3294902,2.22415009 11.2573278,2.29631243 C10.9686784,3.52307253 11.1851655,4.82199497 11.690302,5.97659269 C12.1232761,4.74983259 12.1232761,3.45091015 11.7624643,2.22415009 Z M12.2676008,12.687692 L12.1954385,12.8320167 L12.1232761,12.7598543 C11.4738149,14.4195886 10.7521913,16.0793228 9.95840537,17.6668947 L10.1027301,17.5947323 L10.1027301,17.739057 C11.690302,17.1617581 13.4221985,16.6566216 15.0097704,16.2958098 L14.9376081,16.2236475 L15.1540951,16.2236475 C14.0716598,15.1412121 13.0613868,13.9144521 12.2676008,12.687692 Z M22.0816815,16.5122969 C21.4322203,16.5122969 20.8549214,16.5122969 20.2054602,16.6566217 C20.9270837,17.0174334 21.6487073,17.1617582 22.3703309,17.2339205 C22.8754674,17.3060828 23.3806039,17.2339205 23.8135781,17.0895958 C23.8135781,16.8731087 23.5249286,16.5122969 22.0816815,16.5122969 Z" id="Shape" fill="#FFFFFF" fill-rule="nonzero"></path>
                </g>
            </g>
        </g>
    </g>
</svg>