<?xml version="1.0" encoding="UTF-8"?>
<svg width="18px" height="20px" viewBox="0 0 18 20" version="1.1" xmlns="http://www.w3.org/2000/svg" xmlns:xlink="http://www.w3.org/1999/xlink">
    <!-- Generator: Sketch 52.2 (67145) - http://www.bohemiancoding.com/sketch -->
    <title>借款@3x</title>
    <desc>Created with Sketch.</desc>
    <defs>
        <linearGradient x1="0%" y1="0%" x2="0%" y2="100%" id="linearGradient-1">
            <stop stop-color="#FFD069" offset="0%"></stop>
            <stop stop-color="#FF7A02" offset="100%"></stop>
        </linearGradient>
    </defs>
    <g id="审批" stroke="none" stroke-width="1" fill="none" fill-rule="evenodd">
        <g id="借款单" transform="translate(-18.000000, -266.000000)">
            <g id="Group-10" transform="translate(0.000000, 250.000000)">
                <g id="Group-8" transform="translate(15.000000, 15.000000)">
                    <g id="借款">
                        <rect id="Rectangle" fill-rule="nonzero" x="0" y="0" width="22" height="22"></rect>
                        <g id="Group-3" transform="translate(3.000000, 1.000000)" fill="url(#linearGradient-1)">
                            <path d="M15.2263232,3.67369697 L4.84814141,3.67369697 C5.03268687,3.32642424 5.13793939,2.93319192 5.13793939,2.51682828 C5.13793939,2.10046465 5.03278788,1.70723232 4.84814141,1.36036364 L15.2263232,1.36036364 C15.9016768,1.36036364 16.4507677,1.87905051 16.4507677,2.51682828 C16.4507677,3.15460606 15.9016768,3.67369697 15.2263232,3.67369697 Z M14.5458182,17.1005657 L13.2549091,18.3458182 L11.0778384,16.2462222 C10.814404,15.9916768 10.3972323,15.9916768 10.133596,16.2462222 L7.95682828,18.3458182 L5.77965657,16.2462222 C5.51591919,15.9916768 5.09874747,15.9916768 4.83490909,16.2462222 L2.73692929,18.2691515 L1.36066667,16.9423838 L1.36066667,2.51682828 C1.36066667,1.87894949 1.87935354,1.36026263 2.51723232,1.36026263 C2.52278788,1.36026263 2.52793939,1.35874747 2.53319192,1.35874747 C2.5399596,1.35874747 2.54591919,1.36026263 2.55238384,1.36026263 L2.55470707,1.36026263 C3.22894949,1.36187879 3.77672727,1.88016162 3.77672727,2.51682828 C3.77672727,3.15460606 3.22763636,3.67369697 2.55228283,3.67369697 C2.17632323,3.67369697 1.87218182,3.97783838 1.87218182,4.35339394 C1.87218182,4.72955556 2.17632323,5.03440404 2.55228283,5.03440404 L14.5458182,5.03440404 L14.5458182,17.1005657 Z M15.2264242,-4.04040404e-05 L15.2263232,-4.04040404e-05 L2.55238384,-4.04040404e-05 C2.54632323,-4.04040404e-05 2.54117172,0.000767676768 2.53480808,0.00117171717 C2.52874747,0.000767676768 2.52319192,-4.04040404e-05 2.51723232,-4.04040404e-05 C1.12925253,-4.04040404e-05 -4.04040402e-05,1.12935354 -4.04040402e-05,2.51672727 L-4.04040402e-05,17.2307677 C-4.04040402e-05,17.4162222 0.0748080808,17.5928889 0.208242424,17.7207677 L2.26470707,19.704101 C2.52844444,19.9578384 2.94561616,19.9578384 3.20935354,19.704101 L5.30733333,17.6807677 L7.48410101,19.7796566 C7.74783838,20.0345051 8.16551515,20.0345051 8.42915152,19.7796566 L10.6060202,17.6807677 L12.7831919,19.7796566 C12.9150101,19.9067273 13.0852121,19.9705657 13.2550101,19.9705657 C13.4253131,19.9705657 13.5959192,19.9067273 13.7277374,19.7796566 L15.6983434,17.8797576 C15.8312727,17.7514747 15.9064242,17.5747071 15.9065253,17.3899596 L15.9065253,4.94329293 C17.0026869,4.65076768 17.8115758,3.67490909 17.8115758,2.51672727 C17.8115758,1.12935354 16.6517778,-4.04040404e-05 15.2264242,-4.04040404e-05 Z" id="Fill-1"></path>
                            <path d="M5.256,9.512 C5.024,9.832 4.776,10.144 4.504,10.448 L4.256,9.64 C5,8.712 5.544,7.624 5.896,6.392 L6.616,6.728 C6.456,7.256 6.248,7.768 6.008,8.264 L6.008,13.84 L5.256,13.84 L5.256,9.512 Z M6.6,7.296 L7.624,7.296 L7.624,6.496 L8.368,6.496 L8.368,7.296 L9.672,7.296 L9.672,6.496 L10.408,6.496 L10.408,7.296 L11.464,7.296 L11.464,7.968 L10.408,7.968 L10.408,8.8 L11.64,8.8 L11.64,9.512 L6.408,9.512 L6.408,8.8 L7.624,8.8 L7.624,7.968 L6.6,7.968 L6.6,7.296 Z M8.368,8.8 L9.672,8.8 L9.672,7.968 L8.368,7.968 L8.368,8.8 Z M11.024,9.992 L11.024,13.776 L10.288,13.776 L10.288,13.456 L7.808,13.456 L7.808,13.776 L7.072,13.776 L7.072,9.992 L11.024,9.992 Z M7.808,12.768 L10.288,12.768 L10.288,12.056 L7.808,12.056 L7.808,12.768 Z M7.808,11.392 L10.288,11.392 L10.288,10.672 L7.808,10.672 L7.808,11.392 Z" id="借"></path>
                        </g>
                    </g>
                </g>
            </g>
        </g>
    </g>
</svg>