<?xml version="1.0" encoding="UTF-8"?>
<svg width="20px" height="20px" viewBox="0 0 20 20" version="1.1" xmlns="http://www.w3.org/2000/svg" xmlns:xlink="http://www.w3.org/1999/xlink">
    <!-- Generator: Sketch 52.2 (67145) - http://www.bohemiancoding.com/sketch -->
    <title>加班</title>
    <desc>Created with Sketch.</desc>
    <defs>
        <linearGradient x1="1.23961344%" y1="100%" x2="1.23961344%" y2="1.23961344%" id="linearGradient-1">
            <stop stop-color="#F85E5A" offset="0%"></stop>
            <stop stop-color="#F69D87" offset="100%"></stop>
        </linearGradient>
    </defs>
    <g id="审批" stroke="none" stroke-width="1" fill="none" fill-rule="evenodd">
        <g id="15报销单明细-只读" transform="translate(-277.000000, -166.000000)">
            <g id="Group-3" transform="translate(0.000000, 64.000000)">
                <g id="Group-2-Copy" transform="translate(15.000000, 101.000000)">
                    <g id="加班" transform="translate(261.000000, 0.000000)">
                        <rect id="Rectangle" fill-rule="nonzero" x="0" y="0" width="22" height="22"></rect>
                        <path d="M14.4820571,19.7366514 L2.25051429,19.7366514 L2.25051429,18.7153943 L7.29622857,16.29848 C7.46274286,16.2191657 7.58548571,16.0699086 7.63142857,15.89128 C7.67794286,15.7126514 7.64285714,15.52248 7.53554286,15.3723086 L5.82902857,12.9721943 L5.82902857,9.95745143 C5.82902857,8.53688 6.97942857,7.42453714 8.44777143,7.42453714 C9.9168,7.42453714 11.0672,8.53699429 11.0672,9.95745143 L11.0672,12.9775657 L9.41554286,15.3805371 C9.31302857,15.5294514 9.28,15.7157371 9.32514286,15.8909371 C9.37097143,16.0661371 9.48937143,16.2129943 9.6512,16.2939086 L14.4820571,18.70808 L14.4820571,19.7366514 Z M15.3869714,17.7623657 L10.8534857,15.4964229 L12.2077714,13.5259086 C12.2793143,13.42168 12.3176,13.2981371 12.3176,13.1718514 L12.3176,9.95745143 C12.3176,7.83596571 10.6177143,6.17402286 8.44777143,6.17402286 C6.2784,6.17402286 4.57862857,7.83596571 4.57862857,9.95745143 L4.57862857,13.1718514 C4.57862857,13.3015657 4.61897143,13.4283086 4.69394286,13.5342514 L6.08605714,15.4916229 L1.35508571,17.7577943 C1.13805714,17.8617943 0.999885714,18.0809943 1,18.3215657 L1,20.3619086 C1,20.7071657 1.27988571,20.9870514 1.62525714,20.9870514 L15.1073143,20.9870514 C15.4529143,20.9870514 15.7324571,20.7071657 15.7324571,20.3619086 L15.7324571,18.3215657 C15.7324571,18.0847657 15.5987429,17.8681943 15.3869714,17.7623657 Z M14.2701714,4.09859429 C13.9245714,4.09859429 13.6450286,4.37859429 13.6450286,4.72385143 L13.6450286,8.00385143 C13.6450286,8.34910857 13.9245714,8.62910857 14.2701714,8.62910857 C14.2777143,8.62910857 14.2850286,8.62888 14.2924571,8.62853714 C14.2998857,8.62876571 14.3073143,8.62910857 14.3147429,8.62910857 L17.1947429,8.62910857 C17.5404571,8.62910857 17.82,8.34910857 17.82,8.00385143 C17.82,7.65859429 17.5404571,7.37870857 17.1947429,7.37870857 L14.8954286,7.37870857 L14.8954286,4.72385143 C14.8954286,4.37859429 14.6157714,4.09859429 14.2701714,4.09859429 Z M14.3130286,0.999965714 C12.1502857,0.999965714 10.1153143,2.05722286 8.86971429,3.82819429 L8.50948571,4.33950857 L9.53211429,5.05870857 L9.89177143,4.54739429 C10.9041143,3.10922286 12.5569143,2.25048 14.3130286,2.25048 C17.2913143,2.25048 19.7146286,4.67345143 19.7146286,7.65219429 C19.7146286,10.6308229 17.2913143,13.0541371 14.3130286,13.0541371 L13.6877714,13.0541371 L13.6877714,14.3047657 L14.3130286,14.3047657 C17.9812571,14.3047657 20.9651429,11.3205371 20.9651429,7.65219429 C20.9651429,3.98419429 17.9812571,0.999965714 14.3130286,0.999965714 Z" id="Fill-1" fill="url(#linearGradient-1)"></path>
                    </g>
                </g>
            </g>
        </g>
    </g>
</svg>