<?xml version="1.0" encoding="UTF-8"?>
<svg width="30px" height="26px" viewBox="0 0 30 26" version="1.1" xmlns="http://www.w3.org/2000/svg" xmlns:xlink="http://www.w3.org/1999/xlink">
    <!-- Generator: Sketch 52.2 (67145) - http://www.bohemiancoding.com/sketch -->
    <title>图片</title>
    <desc>Created with Sketch.</desc>
    <g id="审批" stroke="none" stroke-width="1" fill="none" fill-rule="evenodd">
        <g id="影像查看" transform="translate(-307.000000, -145.000000)">
            <g id="Group" transform="translate(0.000000, 64.000000)">
                <g id="图片" transform="translate(306.000000, 78.000000)">
                    <rect id="Rectangle" fill="#000000" opacity="0" x="0" y="0" width="32" height="32"></rect>
                    <path d="M27.122145,17.9543198 L27.122145,8.05561072 C27.122145,7.63421411 26.9547458,7.23007681 26.6567734,6.93210441 C26.358801,6.63413201 25.9546637,6.46673287 25.5332671,6.46673288 L6.46673288,6.46673288 C6.04533627,6.46673287 5.64119896,6.63413201 5.34322656,6.93210441 C5.04525415,7.23007681 4.877855,7.63421411 4.877855,8.05561072 L4.877855,23.67428 L18.3197617,15.6186693 C19.8304627,14.7110398 21.7186932,14.7110398 23.2293943,15.6186693 L27.122145,17.9543198 Z M27.122145,21.6564052 L21.5769613,18.3356504 C21.0853608,18.0518247 20.4796839,18.0518247 19.9880834,18.3356504 L7.94438928,25.5332671 L25.5332671,25.5332671 C25.9546637,25.5332671 26.358801,25.365868 26.6567734,25.0678956 C26.9547458,24.7699232 27.122145,24.3657859 27.122145,23.9443893 L27.122145,21.6564052 Z M6.46673288,3.28897716 L25.5332671,3.28897716 C26.7974569,3.28897716 28.0098688,3.79117461 28.903786,4.6850918 C29.7977032,5.579009 30.2999007,6.7914209 30.2999007,8.05561072 L30.2999007,23.9443893 C30.2999007,26.5769283 28.1658061,28.7110228 25.5332671,28.7110228 L6.46673288,28.7110228 C3.83419385,28.7110228 1.70009931,26.5769283 1.70009931,23.9443893 L1.70009931,8.05561072 C1.70009931,5.42307169 3.83419385,3.28897716 6.46673288,3.28897716 Z M10.4389275,14.4111222 C9.12265799,14.4111222 8.05561072,13.3440749 8.05561072,12.0278054 C8.05561072,10.7115359 9.12265799,9.64448859 10.4389275,9.64448859 C11.755197,9.64448859 12.8222443,10.7115359 12.8222443,12.0278054 C12.8222443,13.3440749 11.755197,14.4111222 10.4389275,14.4111222 Z" id="Shape" fill="#D8D8D8" fill-rule="nonzero"></path>
                </g>
            </g>
        </g>
    </g>
</svg>