<?xml version="1.0" encoding="UTF-8"?>
<svg width="20px" height="20px" viewBox="0 0 20 20" version="1.1" xmlns="http://www.w3.org/2000/svg" xmlns:xlink="http://www.w3.org/1999/xlink">
    <!-- Generator: Sketch 52.2 (67145) - http://www.bohemiancoding.com/sketch -->
    <title>预览</title>
    <desc>Created with Sketch.</desc>
    <g id="审批" stroke="none" stroke-width="1" fill="none" fill-rule="evenodd">
        <g id="单据付款信息-copy" transform="translate(-343.000000, -34.000000)">
            <g id="预览" transform="translate(342.000000, 33.000000)">
                <rect id="Rectangle" fill-rule="nonzero" x="0" y="0" width="22" height="22"></rect>
                <g id="Group" transform="translate(2.500000, 2.000000)">
                    <path d="M4.05133799,17.5 L2,17.5 C0.8954305,17.5 0,16.6045695 0,15.5 L0,2.5 C0,1.3954305 0.8954305,0.5 2,0.5 L14,0.5 C15.1045695,0.5 16,1.3954305 16,2.5 L16,5.3631" id="Path" stroke="#FFFFFF" stroke-width="1.5" stroke-linecap="round" fill-rule="nonzero"></path>
                    <path d="M9.36516781,14.9219376 C8.10695263,13.664624 8.10695263,11.6282631 9.36516781,10.370969 C9.97739115,9.75982361 10.7817011,9.43199661 11.6460221,9.43199661 C12.5094613,9.43199661 13.3146139,9.76770228 13.9267589,10.370969 C15.1840529,11.6282631 15.1840529,13.664624 13.9267589,14.9219376 C12.7102497,16.1286867 10.5808147,16.1286867 9.36516781,14.9219376 Z M15.3771194,15.3662591 C16.7188642,13.521926 16.5432405,10.9665139 14.9240569,9.35712969 C14.0441941,8.47724728 12.8780731,8 11.6373203,8 C10.396548,8 9.23042694,8.48512594 8.35048574,9.35712969 C7.48606668,10.2372277 7,11.4022708 7,12.6429647 C7,13.882816 7.48606668,15.0479375 8.35820761,15.9278003 C9.23905036,16.8077611 10.4051714,17.2860863 11.6460221,17.2860863 C12.6267985,17.2860863 13.5658493,16.9756629 14.3710804,16.3800396 L16.785774,18.7859923 C16.9205933,18.9198904 17.096217,18.9954629 17.2891463,18.9954629 C17.4822325,18.9954629 17.6578562,18.9198904 17.7926558,18.7859923 C18.0691147,18.5084947 18.0691147,18.0564121 17.7926558,17.7798748 L15.3771194,15.3662591 Z" id="Fill-1-Copy" fill="#FFFFFF"></path>
                    <rect id="Rectangle" fill="#FFFFFF" fill-rule="nonzero" x="3" y="4" width="10" height="1.5" rx="0.75"></rect>
                    <rect id="Rectangle-Copy" fill="#FFFFFF" fill-rule="nonzero" x="3" y="8" width="4" height="1.5" rx="0.75"></rect>
                </g>
            </g>
        </g>
    </g>
</svg>