<?xml version="1.0" encoding="UTF-8"?>
<svg width="10px" height="10px" viewBox="0 0 10 10" version="1.1" xmlns="http://www.w3.org/2000/svg" xmlns:xlink="http://www.w3.org/1999/xlink">
    <!-- Generator: Sketch 52.2 (67145) - http://www.bohemiancoding.com/sketch -->
    <title>close</title>
    <desc>Created with Sketch.</desc>
    <g id="审批" stroke="none" stroke-width="1" fill="none" fill-rule="evenodd">
        <g id="8-选择部门" transform="translate(-12.000000, -79.000000)" fill-rule="nonzero">
            <g id="Group-2" transform="translate(0.000000, 64.000000)">
                <g id="close" transform="translate(10.000000, 13.000000)">
                    <rect id="Rectangle" x="0" y="0" width="14" height="14"></rect>
                    <rect id="Rectangle" fill="#9B9B9B" transform="translate(7.000000, 7.000000) rotate(45.000000) translate(-7.000000, -7.000000) " x="1" y="6" width="12" height="2" rx="1"></rect>
                    <path d="M2,6 L12,6 C12.5522847,6 13,6.44771525 13,7 L13,7 C13,7.55228475 12.5522847,8 12,8 L2,8 C1.44771525,8 1,7.55228475 1,7 L1,7 C1,6.44771525 1.44771525,6 2,6 Z" id="Rectangle" fill="#9B9B9B" transform="translate(7.000000, 7.000000) rotate(135.000000) translate(-7.000000, -7.000000) "></path>
                </g>
            </g>
        </g>
    </g>
</svg>