<svg xmlns="http://www.w3.org/2000/svg" width="15" height="15" viewBox="0 0 15 15">
  <g fill="none" fill-rule="evenodd">
    <rect width="15" height="15"/>
    <path fill="#48D2A0" d="M10.6903273,14.6003497 L2.58593686,14.6003497 C1.15991607,14.6003497 -1.02140518e-13,13.4393606 -1.02140518e-13,12.0133398 L-1.02140518e-13,2.58593686 C-1.02140518e-13,1.15991607 1.15991607,-1.50990331e-14 2.58593686,-1.50990331e-14 L8.32864808,-1.50990331e-14 C8.57758474,-1.50990331e-14 8.81579137,0.0976432588 8.99176384,0.273615725 L11.4360643,2.7179162 C11.8030313,3.08488318 11.8041043,3.67825375 11.4371373,4.04522072 C11.0701703,4.4121877 10.4767998,4.4132607 10.1098328,4.04629373 L7.94022105,1.87775498 L2.58593686,1.87775498 C2.19536382,1.87775498 1.87775498,2.19429082 1.87775498,2.58593686 L1.87775498,12.0133398 C1.87775498,12.4039129 2.19536382,12.7225947 2.58593686,12.7225947 L10.6903273,12.7225947 C11.0809004,12.7225947 11.3995822,12.4039129 11.3995822,12.0133398 C11.3995822,11.4940065 11.8201993,11.0744624 12.3384597,11.0744624 C12.8577931,11.0744624 13.2773372,11.4940065 13.2773372,12.0133398 C13.2773372,13.4393606 12.1163481,14.6003497 10.6903273,14.6003497 Z M7.61585229,11.1424907 C7.28429441,11.1424907 6.95917455,10.9901243 6.74779299,10.7025596 C6.39906706,10.2250733 6.50314834,9.55337352 6.98170761,9.20250159 L12.9926695,4.80962795 C13.4712288,4.45875602 14.1418556,4.5639103 14.4916545,5.04246957 C14.8403804,5.52102884 14.7373722,6.19272862 14.2577399,6.54252754 L8.24785096,10.9364742 C8.05685646,11.0759646 7.83474487,11.1424907 7.61585229,11.1424907 Z"/>
  </g>
</svg>
