<svg xmlns="http://www.w3.org/2000/svg" width="15" height="15" viewBox="0 0 15 15">
  <g fill="none" fill-rule="evenodd">
    <rect width="15" height="15"/>
    <path fill="#FF5B3E" d="M9.2023,11.2585 C8.7233,11.2585 8.3313,10.9045 8.3303,10.4685 L8.3153,5.9795 C8.3143,5.7625 8.4133,5.5515 8.5853,5.4025 C8.7473,5.2635 8.9603,5.1855 9.1843,5.1845 C9.6663,5.1845 10.0583,5.5385 10.0593,5.9745 L10.0743,10.4635 C10.0753,10.6805 9.9763,10.8905 9.8043,11.0405 C9.6423,11.1805 9.4293,11.2575 9.2053,11.2585 L9.2023,11.2585 Z M5.5353,11.2717 C5.0563,11.2717 4.6643,10.9177 4.6633,10.4817 L4.6483,5.9927 C4.6473,5.7747 4.7453,5.5637 4.9183,5.4147 C5.0803,5.2747 5.2933,5.1977 5.5183,5.1967 C6.0003,5.1967 6.3913,5.5507 6.3923,5.9867 L6.4073,10.4767 C6.4083,10.6927 6.3093,10.9037 6.1373,11.0537 C5.9753,11.1927 5.7623,11.2707 5.5383,11.2717 L5.5353,11.2717 Z M5.1798,2.0291 L9.4928,2.0141 L9.4918,1.7251 L5.1788,1.7381 L5.1798,2.0291 Z M2.8088,12.9011 L12.0988,12.8691 L12.0678,3.7341 L2.7788,3.7651 L2.8088,12.9011 Z M2.5018,14.6231 C1.7268,14.6231 1.0928,13.9921 1.0908,13.2161 L1.0578,3.7711 L0.8718,3.7721 C0.3918,3.7721 0.0008,3.3831 -0.0002,2.9061 C-0.0012,2.6741 0.0898,2.4551 0.2528,2.2901 C0.4168,2.1251 0.6338,2.0351 0.8658,2.0341 L3.4608,2.0251 L3.4588,1.4331 C3.4558,0.6561 4.0878,0.0201 4.8658,0.0161 L9.7988,0.0001 C10.5798,0.0001 11.2138,0.6311 11.2158,1.4071 L11.2178,1.9991 L13.7988,1.9901 C14.0368,1.9901 14.2668,2.0821 14.4298,2.2441 C14.5958,2.4091 14.6858,2.6271 14.6858,2.8571 C14.6878,3.3351 14.2918,3.7261 13.8048,3.7271 L13.7908,3.7271 L13.8228,13.1731 C13.8258,13.9511 13.1938,14.5871 12.4158,14.5891 L2.5018,14.6231 Z"/>
  </g>
</svg>
