<?xml version="1.0" encoding="UTF-8"?>
<svg width="22px" height="22px" viewBox="0 0 22 22" version="1.1" xmlns="http://www.w3.org/2000/svg" xmlns:xlink="http://www.w3.org/1999/xlink">
    <!-- Generator: Sketch 52.2 (67145) - http://www.bohemiancoding.com/sketch -->
    <title>Group 15</title>
    <desc>Created with Sketch.</desc>
    <defs>
        <linearGradient x1="50%" y1="100%" x2="50%" y2="3.061617e-15%" id="linearGradient-1">
            <stop stop-color="#6A89FF" offset="0%"></stop>
            <stop stop-color="#1FA2FF" offset="100%"></stop>
        </linearGradient>
    </defs>
    <g id="审批" stroke="none" stroke-width="1" fill="none" fill-rule="evenodd">
        <g id="10-审批" transform="translate(-16.000000, -266.000000)">
            <g id="Group-14" transform="translate(0.000000, 250.000000)">
                <g id="Group-15" transform="translate(16.000000, 16.000000)">
                    <g id="Group-6" fill-rule="nonzero">
                        <rect id="Rectangle" x="0" y="0" width="22" height="22"></rect>
                    </g>
                    <path d="M11.6118194,6.19040404 L11.6118194,6.10454545 C11.6118194,5.75191919 11.3244457,5.46414141 10.9712134,5.4630303 C10.8006073,5.4630303 10.6396982,5.52989899 10.5185871,5.65151515 C10.397981,5.77242424 10.3320214,5.93232323 10.3325265,6.10171717 L10.3327285,6.1879798 L9.43444568,6.18727273 L9.43444568,6.10141414 C9.45222346,5.25333333 10.1257588,4.56525253 10.9360618,4.56525253 L10.9724255,4.56575758 C11.8150517,4.57 12.5055568,5.26040404 12.5099002,6.10474747 L12.5103043,6.19111111 L11.6118194,6.19040404 Z M18.9383851,14.0944444 L18.9496982,14.1019192 C19.0304053,14.1555556 19.1304053,14.1784848 19.2835366,14.1784848 C19.6356578,14.1781818 19.9225265,13.8914141 19.9231326,13.5392929 C19.9226275,13.3221212 19.7964659,13.090303 19.6164659,12.9760606 L13.9158598,9.79878788 L13.547476,12.5771717 L18.9383851,14.0944444 Z M2.41131437,12.9627273 L2.40404164,12.9675758 C2.19444568,13.1072727 2.07929417,13.3009091 2.07990023,13.5127273 C2.07990023,13.8627273 2.39495073,14.1822222 2.74454669,14.1909091 L8.597577,12.6781818 L8.09666791,9.27222222 L2.42848609,12.9453535 L2.41131437,12.9627273 Z M8.3706073,18.4252525 C8.3206073,18.5035354 8.29919316,18.6019192 8.29919316,18.7515152 C8.29969821,19.1027273 8.58454669,19.3893939 8.93515275,19.3931313 C8.96545578,19.3890909 8.99666791,19.3858586 9.02788003,19.3827273 C9.11222346,19.3742424 9.19929417,19.3653535 9.25242548,19.3373737 L10.6403043,18.0211111 L10.748082,17.9139394 C10.7755568,17.8859596 10.8041427,17.8717172 10.8249507,17.8613131 C10.8408093,17.8533333 10.8487891,17.8491919 10.8564659,17.8415152 C10.8802033,17.8178788 10.9082841,17.8085859 10.9269709,17.8024242 C10.9295972,17.8015152 10.9322235,17.8007071 10.9348497,17.799798 L10.9556578,17.7790909 L10.9655568,17.7734343 C11.0389911,17.7315152 11.1222235,17.7087879 11.2065669,17.7076768 C11.3696982,17.7084848 11.537375,17.7845455 11.6683851,17.9162626 L11.6853548,17.9326263 C11.7117184,17.9594949 11.7287891,17.9877778 11.7439406,18.0127273 C11.7552538,18.0317172 11.7660618,18.0494949 11.7769709,18.060202 L13.0259608,19.2733333 C13.1134356,19.3324242 13.2154558,19.3636364 13.3214154,19.3636364 L13.3326275,19.3634343 C13.6861629,19.3628283 13.9729305,19.0760606 13.9735366,18.7242424 C13.9758598,18.6127273 13.9447487,18.5068687 13.8832336,18.4157576 L11.9685871,16.4276768 L13.2457588,5.99545455 C13.2391932,5.95222222 13.2415164,5.91333333 13.2436376,5.87868687 C13.2463649,5.8340404 13.2486881,5.79545455 13.2329305,5.74868687 L13.2283851,5.73545455 L13.2283851,5.72141414 C13.2265669,4.4930303 12.2389911,3.06373737 10.9681831,3.06151515 C9.6965669,3.07828283 8.71293053,4.5010101 8.71535477,5.71414141 C8.71535477,5.80010101 8.72838508,5.9159596 8.75020326,6.02434343 L10.2803043,16.5149495 L8.3706073,18.4252525 Z M8.97717296,20.4382828 C8.02323356,20.4324242 7.24282952,19.6520202 7.23697094,18.6983838 C7.2356578,18.0683838 7.40747599,17.7264646 7.97252649,17.2350505 L9.09838508,16.1088889 L8.75171841,13.7057576 C7.8916174,13.9555556 5.41141538,14.6634343 3.62383962,15.05 C3.38454669,15.1751515 3.04788003,15.2527273 2.7416174,15.2527273 C2.46121336,15.2527273 2.17383962,15.1705051 1.887577,15.0084848 L1.83171841,14.9889899 L1.82373861,14.9840404 C1.31040528,14.6663636 1.00242548,14.1163636 1.00000124,13.5126263 C0.999395178,12.9785859 1.22111235,12.5659596 1.69788003,12.2138384 C1.86454669,12.079596 2.05394063,11.9694949 2.29383962,11.830101 L2.36616286,11.7880808 L7.9406073,8.19565657 L7.67373861,6.45292929 L7.61808205,5.73737374 C7.61636488,4.73464646 8.05202144,3.70292929 8.78303154,2.97090909 C9.40828407,2.34474747 10.1887891,2 10.9807083,2 C12.9160618,2.00272727 14.3614154,3.97717172 14.3638396,5.74070707 C14.3638396,5.90585859 14.3464659,5.9669697 14.3201022,6.05959596 C14.2986881,6.13525253 14.2692942,6.23878788 14.2365669,6.46181818 L14.0102033,8.49070707 L20.2135366,11.9952525 C20.6911124,12.3139394 20.9847487,12.8844444 20.9853548,13.4875758 C20.9856578,14.0750505 20.6955568,14.6114141 20.2067689,14.9323232 L20.2067689,15.0069697 L20.1106073,15.0069697 C19.877678,15.1608081 19.5881831,15.2419192 19.2713144,15.2419192 C18.9417184,15.2419192 18.6658598,15.1528283 18.4609103,15.0741414 C16.8031326,14.6941414 14.3514154,13.9979798 13.4188901,13.7320202 L13.1659608,16.0421212 L14.2114154,17.1226263 C14.6738396,17.5857576 15.0900012,18.0550505 15.0906073,18.6909091 C15.0956578,19.2726263 14.8108093,19.8150505 14.3285871,20.1412121 C14.0650517,20.3230303 13.7229305,20.4274747 13.3906073,20.4274747 C12.9152538,20.4263636 12.4503043,20.2118182 12.1137386,19.8387879 C11.8708093,19.639596 11.6644457,19.450303 11.4822235,19.2831313 C11.3797992,19.1890909 11.2895972,19.1063636 11.207476,19.0353535 C11.067476,19.1457576 10.9011124,19.2948485 10.7109103,19.4654545 C10.4815164,19.6711111 10.2215164,19.9043434 9.90333457,20.1660606 L9.88626387,20.1837374 L9.87990023,20.1881818 C9.63929417,20.3541414 9.33717296,20.4382828 8.98202144,20.4382828 L8.97717296,20.4382828 Z" id="Fill-1" fill="url(#linearGradient-1)"></path>
                </g>
            </g>
        </g>
    </g>
</svg>