<?xml version="1.0" encoding="UTF-8"?>
<svg width="24px" height="24px" viewBox="0 0 24 24" version="1.1" xmlns="http://www.w3.org/2000/svg" xmlns:xlink="http://www.w3.org/1999/xlink">
    <!-- Generator: Sketch 52.2 (67145) - http://www.bohemiancoding.com/sketch -->
    <title>refuse-1</title>
    <desc>Created with Sketch.</desc>
    <g id="审批" stroke="none" stroke-width="1" fill="none" fill-rule="evenodd">
        <g id="2-左滑审批" transform="translate(-243.000000, -160.000000)">
            <g id="Group-9" transform="translate(215.000000, 114.000000)">
                <g id="Group-35" transform="translate(26.000000, 46.000000)">
                    <g id="refuse-1" transform="translate(2.000000, 0.000000)">
                        <circle id="Oval-3" fill="#F96F68" cx="12" cy="12" r="12"></circle>
                        <path d="M15.1150532,14.6741359 L9.89292267,8.47699537 C11.5899942,7.45902147 13.8223025,7.79243735 15.138919,9.35518365 C16.4555355,10.9172507 16.4064321,13.1741174 15.1150532,14.6741359 Z M8.86131115,14.6455022 C7.54470795,13.0834218 7.59447728,10.8258893 8.88517699,9.32587075 L14.1073075,15.5230113 C12.4102359,16.5409852 10.1779277,16.2075693 8.86131115,14.6455022 Z M8.48494474,7.82924828 C6.18173151,9.77042527 5.88785674,13.2109283 7.82902041,15.5148341 C9.77019739,17.8187265 13.2113929,18.1119221 15.5152854,16.1707451 C17.818512,14.2302606 18.1123734,10.7890784 16.1712097,8.48517262 C14.2300327,6.18126685 10.7888505,5.88808461 8.48494474,7.82924828 L8.48494474,7.82924828 Z" id="拒绝" fill="#FFFFFF"></path>
                    </g>
                </g>
            </g>
        </g>
    </g>
</svg>