<svg xmlns="http://www.w3.org/2000/svg" width="12" height="12" viewBox="0 0 12 12">
  <path fill="#BFBFBF" fill-rule="evenodd" d="M7.40581539,7.93614548 L11.1801512,11.7104813 C11.326592,11.8569221 11.5630032,11.8579384 11.7104708,11.7104708 C11.8569174,11.5640242 11.8550629,11.3247328 11.7104813,11.1801512 L7.93614548,7.40581539 C8.59981617,6.6218095 9,5.60763872 9,4.5 C9,2.01471863 6.98528137,0 4.5,0 C2.01471863,0 0,2.01471863 0,4.5 C0,6.98528137 2.01471863,9 4.5,9 C5.60763872,9 6.6218095,8.59981617 7.40581539,7.93614548 L7.40581539,7.93614548 L7.40581539,7.93614548 Z M0.75,4.5 C0.75,2.42893219 2.42893219,0.75 4.5,0.75 C6.57106781,0.75 8.25,2.42893219 8.25,4.5 C8.25,6.57106781 6.57106781,8.25 4.5,8.25 C2.42893219,8.25 0.75,6.57106781 0.75,4.5 L0.75,4.5 Z"/>
</svg>
