<?xml version="1.0" encoding="UTF-8"?>
<svg width="14px" height="10px" viewBox="0 0 14 10" version="1.1" xmlns="http://www.w3.org/2000/svg" xmlns:xlink="http://www.w3.org/1999/xlink">
    <!-- Generator: Sketch 52.2 (67145) - http://www.bohemiancoding.com/sketch -->
    <title>select copy</title>
    <desc>Created with Sketch.</desc>
    <g id="审批" stroke="none" stroke-width="1" fill="none" fill-rule="evenodd">
        <g id="8-选择部门" transform="translate(-346.000000, -282.000000)" fill="#1FA2FF">
            <g id="Group-3" transform="translate(0.000000, 105.000000)">
                <g id="Group-7-Copy" transform="translate(15.000000, 175.000000)">
                    <path d="M331.245158,8.04823037 L335.086031,11.7561109 C335.409749,12.0727389 336.057186,12.0810712 336.389653,11.7811078 L337.002093,11.2228427 L338.323213,10.0146569 L344.745083,4.18203588 C345.07755,3.88207251 345.086299,3.26548115 344.762581,2.95718547 L344.018904,2.232274 C343.695186,1.92397832 343.047749,1.92397832 342.724031,2.22394169 L336.442148,8.19821206 C336.11843,8.50650774 335.470993,8.49817542 335.156024,8.18987974 L333.064979,6.18179165 C332.75001,5.86516365 332.120072,5.87349597 331.805103,6.19845628 L331.22766,6.7900507 C330.912691,7.1066787 330.930189,7.73993469 331.245158,8.04823037 Z" id="select-copy"></path>
                </g>
            </g>
        </g>
    </g>
</svg>