<?xml version="1.0" encoding="UTF-8"?>
<svg width="14px" height="14px" viewBox="0 0 14 14" version="1.1" xmlns="http://www.w3.org/2000/svg" xmlns:xlink="http://www.w3.org/1999/xlink">
    <!-- Generator: Sketch 52.2 (67145) - http://www.bohemiancoding.com/sketch -->
    <title>up</title>
    <desc>Created with Sketch.</desc>
    <g id="审批" stroke="none" stroke-width="1" fill="none" fill-rule="evenodd">
        <g id="6-模糊查询-筛选" transform="translate(-336.000000, -77.000000)">
            <g id="Group-7" transform="translate(0.000000, 64.000000)">
                <g id="Group-6" transform="translate(336.000000, 13.000000)">
                    <rect id="Rectangle-48-Copy-5" transform="translate(7.000000, 7.000000) rotate(90.000000) translate(-7.000000, -7.000000) " x="0" y="0" width="14" height="14"></rect>
                    <g id="swap" transform="translate(6.744141, 7.187500) rotate(90.000000) translate(-6.744141, -7.187500) translate(0.744141, 1.187500)" fill="#1FA2FF" fill-rule="nonzero" stroke="#1FA2FF" stroke-width="0.5">
                        <path d="M0.556171875,4.095 C0.55125,4.095 0.546328125,4.095 0.54140625,4.09335937 C0.53484375,4.09335937 0.529921875,4.09171875 0.523359375,4.09171875 C0.520078125,4.09171875 0.51515625,4.09007812 0.511875,4.09007812 C0.5053125,4.0884375 0.49875,4.0884375 0.493828125,4.08679687 C0.490546875,4.08679687 0.487265625,4.08515625 0.483984375,4.08515625 C0.477421875,4.08351562 0.470859375,4.081875 0.4659375,4.08023437 C0.46265625,4.08023437 0.459375,4.07859375 0.45609375,4.07859375 C0.44953125,4.07695312 0.444609375,4.0753125 0.438046875,4.07367187 C0.434765625,4.07203125 0.431484375,4.07203125 0.428203125,4.07039062 C0.42328125,4.06875 0.41671875,4.06710937 0.411796875,4.06546875 C0.408515625,4.06382812 0.40359375,4.0621875 0.4003125,4.0621875 C0.395390625,4.06054687 0.39046875,4.05890625 0.385546875,4.05726562 C0.380625,4.055625 0.37734375,4.05398437 0.372421875,4.05234375 C0.3675,4.05070312 0.36421875,4.0490625 0.359296875,4.04742187 C0.354375,4.04578125 0.349453125,4.0425 0.34453125,4.04085937 C0.34125,4.03921875 0.33796875,4.03757812 0.333046875,4.0359375 C0.328125,4.03265625 0.323203125,4.03101562 0.31828125,4.02773437 C0.315,4.02609375 0.31171875,4.02445312 0.3084375,4.0228125 C0.303515625,4.01953125 0.296953125,4.01625 0.29203125,4.01296875 C0.28875,4.01132812 0.287109375,4.0096875 0.283828125,4.00804687 C0.27890625,4.00476562 0.27234375,4.00148437 0.267421875,3.99820312 C0.264140625,3.9965625 0.2625,3.99492187 0.25921875,3.99328125 C0.254296875,3.99 0.249375,3.98671875 0.244453125,3.98179687 C0.241171875,3.98015625 0.237890625,3.976875 0.23625,3.97523437 C0.231328125,3.97195312 0.22640625,3.96867187 0.223125,3.96375 C0.21984375,3.96046875 0.214921875,3.9571875 0.211640625,3.95390625 C0.208359375,3.950625 0.205078125,3.94734375 0.201796875,3.94570312 C0.18703125,3.93257812 0.17390625,3.91945312 0.16078125,3.9046875 C0.1575,3.90140625 0.15421875,3.898125 0.152578125,3.89484375 C0.149296875,3.8915625 0.146015625,3.88664062 0.142734375,3.88335937 C0.139453125,3.8784375 0.136171875,3.87351562 0.13125,3.87023437 C0.129609375,3.86695312 0.126328125,3.86367187 0.1246875,3.86203125 C0.12140625,3.85710937 0.118125,3.8521875 0.113203125,3.84726562 C0.1115625,3.84398437 0.109921875,3.84234375 0.10828125,3.8390625 C0.105,3.83414062 0.10171875,3.82757812 0.0984375,3.82265625 C0.096796875,3.819375 0.09515625,3.81773437 0.093515625,3.81445312 C0.090234375,3.80953125 0.086953125,3.80296875 0.083671875,3.79804687 C0.08203125,3.79476562 0.080390625,3.79148437 0.07875,3.78820312 C0.07546875,3.78328125 0.073828125,3.77835937 0.070546875,3.7734375 C0.06890625,3.77015625 0.067265625,3.766875 0.065625,3.76359375 C0.063984375,3.75867187 0.060703125,3.75375 0.0590625,3.74882812 C0.057421875,3.74390625 0.05578125,3.740625 0.054140625,3.73570312 C0.0525,3.73078125 0.050859375,3.7275 0.04921875,3.72257812 C0.047578125,3.71765625 0.0459375,3.71273437 0.044296875,3.7078125 C0.04265625,3.70453125 0.041015625,3.69960937 0.041015625,3.69632812 C0.039375,3.69140625 0.037734375,3.68484375 0.03609375,3.67992187 C0.034453125,3.67664062 0.034453125,3.67335937 0.0328125,3.67007812 C0.031171875,3.66351562 0.02953125,3.65859375 0.027890625,3.65203125 C0.027890625,3.64875 0.02625,3.64546875 0.02625,3.6421875 C0.024609375,3.635625 0.02296875,3.6290625 0.02296875,3.62414062 C0.02296875,3.62085937 0.021328125,3.61757812 0.021328125,3.61429687 C0.0196875,3.60773437 0.0196875,3.60117187 0.018046875,3.59625 C0.018046875,3.59296875 0.01640625,3.58804687 0.01640625,3.58476562 C0.01640625,3.57820312 0.014765625,3.57328125 0.014765625,3.56671875 C0.014765625,3.56179687 0.014765625,3.556875 0.013125,3.55195312 C0.013125,3.54703125 0.013125,3.54210937 0.011484375,3.53882812 C0.00984375,3.51914062 0.00984375,3.49945312 0.011484375,3.47976562 C0.011484375,3.47484375 0.011484375,3.46992187 0.013125,3.46664062 C0.013125,3.46171875 0.013125,3.45679687 0.014765625,3.451875 C0.014765625,3.4453125 0.01640625,3.44039062 0.01640625,3.43382812 C0.01640625,3.43054687 0.018046875,3.425625 0.018046875,3.42234375 C0.0196875,3.41578125 0.0196875,3.40921875 0.021328125,3.40429687 C0.021328125,3.40101562 0.02296875,3.39773437 0.02296875,3.39445312 C0.024609375,3.38789062 0.02625,3.38132812 0.02625,3.37640625 C0.02625,3.373125 0.027890625,3.36984375 0.027890625,3.3665625 C0.02953125,3.36 0.031171875,3.35507812 0.0328125,3.34851562 C0.034453125,3.34523437 0.034453125,3.34195312 0.03609375,3.33867187 C0.037734375,3.33375 0.039375,3.3271875 0.041015625,3.32226562 C0.04265625,3.31898437 0.044296875,3.3140625 0.044296875,3.31078125 C0.0459375,3.30585937 0.047578125,3.3009375 0.04921875,3.29601562 C0.050859375,3.29109375 0.0525,3.2878125 0.054140625,3.28289062 C0.05578125,3.27796875 0.057421875,3.2746875 0.0590625,3.26976562 C0.060703125,3.26484375 0.063984375,3.25992187 0.065625,3.255 C0.067265625,3.25171875 0.06890625,3.2484375 0.070546875,3.24515625 C0.073828125,3.24023437 0.07546875,3.2353125 0.07875,3.23039062 C0.080390625,3.22710937 0.08203125,3.22382812 0.083671875,3.22054687 C0.086953125,3.215625 0.090234375,3.2090625 0.093515625,3.20414062 C0.09515625,3.20085937 0.096796875,3.19921875 0.0984375,3.1959375 C0.10171875,3.19101562 0.105,3.18445312 0.10828125,3.17953125 C0.109921875,3.17625 0.1115625,3.17460937 0.113203125,3.17132812 C0.116484375,3.16640625 0.119765625,3.16148437 0.1246875,3.1565625 C0.126328125,3.15328125 0.129609375,3.15 0.13125,3.14835937 C0.13453125,3.1434375 0.1378125,3.13851562 0.142734375,3.13523437 C0.146015625,3.13195312 0.149296875,3.12703125 0.152578125,3.12375 C0.155859375,3.12046875 0.159140625,3.1171875 0.162421875,3.11390625 C0.168984375,3.10734375 0.175546875,3.09914062 0.182109375,3.09257812 L3.09421875,0.18046875 C3.32554688,-0.050859375 3.69960938,-0.050859375 3.92929687,0.18046875 C4.160625,0.411796875 4.160625,0.785859375 3.92929687,1.01554687 L2.02617188,2.91867187 L10.9528125,2.91867187 C11.2792969,2.91867187 11.5434375,3.1828125 11.5434375,3.50929687 C11.5434375,3.83578125 11.2792969,4.09992187 10.9528125,4.09992187 L0.60046875,4.09992187 C0.60046875,4.09992187 0.60046875,4.09992187 0.60046875,4.09992187 C0.590625,4.09992187 0.58078125,4.09992187 0.5709375,4.09992187 C0.564375,4.09664062 0.559453125,4.09664062 0.556171875,4.095 Z M10.9938281,7.2909375 C10.99875,7.2909375 11.0036719,7.2909375 11.0085938,7.29257812 C11.0151563,7.29257812 11.0200781,7.29421875 11.0266406,7.29421875 C11.0299219,7.29421875 11.0348438,7.29585937 11.038125,7.29585937 C11.0446875,7.2975 11.05125,7.2975 11.0561719,7.29914063 C11.0594531,7.29914063 11.0627344,7.30078125 11.0660156,7.30078125 C11.0725781,7.30242188 11.0791406,7.3040625 11.0840625,7.30570312 C11.0873438,7.30570312 11.090625,7.30734375 11.0939063,7.30734375 C11.1004688,7.30898438 11.1053906,7.310625 11.1119531,7.31226562 C11.1152344,7.31390625 11.1185156,7.31390625 11.1217969,7.31554687 C11.1267188,7.3171875 11.1332813,7.31882813 11.1382031,7.32046875 C11.1414844,7.32210938 11.1464063,7.32375 11.1496875,7.32375 C11.1546094,7.32539063 11.1595313,7.32703125 11.1644531,7.32867187 C11.169375,7.3303125 11.1726563,7.33195313 11.1775781,7.33359375 C11.1825,7.33523437 11.1857813,7.336875 11.1907031,7.33851562 C11.195625,7.34015625 11.2005469,7.3434375 11.2054688,7.34507812 C11.20875,7.34671875 11.2120313,7.34835937 11.2169531,7.35 C11.221875,7.35328125 11.2267969,7.35492187 11.2317188,7.35820312 C11.235,7.35984375 11.2382813,7.36148437 11.2415625,7.363125 C11.2464844,7.36640625 11.2530469,7.3696875 11.2579688,7.37296875 C11.26125,7.37460937 11.2628906,7.37625 11.2661719,7.37789062 C11.2710938,7.38117187 11.2776563,7.38445312 11.2825781,7.38773437 C11.2858594,7.389375 11.2875,7.39101562 11.2907813,7.39265625 C11.2957031,7.3959375 11.300625,7.39921875 11.3055469,7.40414062 C11.3088281,7.40578125 11.3121094,7.4090625 11.31375,7.41070312 C11.3186719,7.41398437 11.3235938,7.41726562 11.326875,7.4221875 C11.3301563,7.42546875 11.3350781,7.42875 11.3383594,7.43203125 C11.3416406,7.4353125 11.3449219,7.43859375 11.3482031,7.44023437 C11.3629688,7.45335937 11.3760938,7.46648437 11.3892188,7.48125 C11.3925,7.48453125 11.3957813,7.4878125 11.3974219,7.49109375 C11.4007031,7.494375 11.4039844,7.49929687 11.4072656,7.50257812 C11.4105469,7.5075 11.4138281,7.51242187 11.41875,7.51570312 C11.4203906,7.51898437 11.4236719,7.52226562 11.4253125,7.52390625 C11.4285938,7.52882812 11.431875,7.53375 11.4367969,7.53867187 C11.4384375,7.54195312 11.4400781,7.54359375 11.4417188,7.546875 C11.445,7.55179687 11.4482813,7.55835937 11.4515625,7.56328125 C11.4532031,7.5665625 11.4548438,7.56820312 11.4564844,7.57148437 C11.4597656,7.57640625 11.4630469,7.58296875 11.4663281,7.58789062 C11.4679688,7.59117187 11.4696094,7.59445312 11.47125,7.59773437 C11.4745313,7.60265625 11.4761719,7.60757812 11.4794531,7.6125 C11.4810938,7.61578125 11.4827344,7.6190625 11.484375,7.62234375 C11.4860156,7.62726562 11.4892969,7.6321875 11.4909375,7.63710937 C11.4925781,7.64203125 11.4942188,7.6453125 11.4958594,7.65023437 C11.4975,7.65515625 11.4991406,7.6584375 11.5007813,7.66335937 C11.5024219,7.66828125 11.5040625,7.67320312 11.5057031,7.678125 C11.5073438,7.68140625 11.5089844,7.68632812 11.5089844,7.68960937 C11.510625,7.69453125 11.5122656,7.70109375 11.5139063,7.70601562 C11.5155469,7.70929687 11.5155469,7.71257812 11.5171875,7.71585937 C11.5188281,7.72242187 11.5204688,7.72734375 11.5221094,7.73390625 C11.5221094,7.7371875 11.52375,7.74046875 11.52375,7.74375 C11.5253906,7.7503125 11.5270313,7.756875 11.5270313,7.76179687 C11.5270313,7.76507812 11.5286719,7.76835937 11.5286719,7.77164062 C11.5303125,7.77820312 11.5303125,7.78476562 11.5319531,7.7896875 C11.5319531,7.79296875 11.5335938,7.79789062 11.5335938,7.80117187 C11.5335938,7.80773437 11.5352344,7.81265625 11.5352344,7.81921875 C11.5352344,7.82414062 11.5352344,7.8290625 11.536875,7.83398437 C11.536875,7.83890625 11.536875,7.84382812 11.5385156,7.84710937 C11.5401563,7.86679687 11.5401563,7.88648437 11.5385156,7.90617187 C11.5385156,7.91109375 11.5385156,7.91601562 11.536875,7.91929687 C11.536875,7.92421875 11.536875,7.92914062 11.5352344,7.9340625 C11.5352344,7.940625 11.5335938,7.94554687 11.5335938,7.95210937 C11.5335938,7.95539062 11.5319531,7.9603125 11.5319531,7.96359375 C11.5303125,7.97015625 11.5303125,7.97671875 11.5286719,7.98164062 C11.5286719,7.98492187 11.5270313,7.98820312 11.5270313,7.99148437 C11.5253906,7.99804687 11.52375,8.00460937 11.52375,8.00953125 C11.52375,8.0128125 11.5221094,8.01609375 11.5221094,8.019375 C11.5204688,8.0259375 11.5188281,8.03085938 11.5171875,8.03742187 C11.5155469,8.04070313 11.5155469,8.04398437 11.5139063,8.04726562 C11.5122656,8.0521875 11.510625,8.05875 11.5089844,8.06367188 C11.5073438,8.06695313 11.5057031,8.071875 11.5057031,8.07515625 C11.5040625,8.08007812 11.5024219,8.085 11.5007813,8.08992187 C11.4991406,8.09484375 11.4975,8.098125 11.4958594,8.10304688 C11.4942188,8.10796875 11.4925781,8.11125 11.4909375,8.11617187 C11.4892969,8.12109375 11.4860156,8.12601562 11.484375,8.1309375 C11.4827344,8.13421875 11.4810938,8.1375 11.4794531,8.14078125 C11.4761719,8.14570312 11.4745313,8.150625 11.47125,8.15554687 C11.4696094,8.15882812 11.4679688,8.16210937 11.4663281,8.16539062 C11.4630469,8.1703125 11.4597656,8.176875 11.4564844,8.18179687 C11.4548438,8.18507813 11.4532031,8.18671875 11.4515625,8.19 C11.4482813,8.19492187 11.445,8.20148437 11.4417188,8.20640625 C11.4400781,8.2096875 11.4384375,8.21132812 11.4367969,8.21460937 C11.4335156,8.21953125 11.4302344,8.22445313 11.4253125,8.229375 C11.4236719,8.23265625 11.4203906,8.2359375 11.41875,8.23757812 C11.4154688,8.2425 11.4121875,8.24742187 11.4072656,8.25070312 C11.4039844,8.25398437 11.4007031,8.25890625 11.3974219,8.2621875 C11.3941406,8.26546875 11.3908594,8.26875 11.3875781,8.27203125 C11.3810156,8.27859375 11.3744531,8.28679687 11.3678906,8.29335937 L8.45742188,11.20875 C8.22609375,11.4400781 7.85203125,11.4400781 7.62234375,11.20875 C7.39101563,10.9774219 7.39101563,10.6033594 7.62234375,10.3736719 L9.52546875,8.47054687 L0.598828125,8.47054687 C0.27234375,8.47054687 0.008203125,8.20640625 0.008203125,7.87992187 C0.008203125,7.5534375 0.27234375,7.28929687 0.598828125,7.28929687 L10.9511719,7.28929687 C10.9511719,7.28929687 10.9511719,7.28929687 10.9511719,7.28929687 C10.9610156,7.28929687 10.9708594,7.28929687 10.9807031,7.28929687 C10.985625,7.28929687 10.9905469,7.28929687 10.9938281,7.2909375 Z" id="Shape"></path>
                    </g>
                </g>
            </g>
        </g>
    </g>
</svg>