<?xml version="1.0" encoding="UTF-8"?>
<svg width="15px" height="15px" viewBox="0 0 15 15" version="1.1" xmlns="http://www.w3.org/2000/svg" xmlns:xlink="http://www.w3.org/1999/xlink">
    <!-- Generator: Sketch 52.2 (67145) - http://www.bohemiancoding.com/sketch -->
    <title>文件</title>
    <desc>Created with Sketch.</desc>
    <g id="审批" stroke="none" stroke-width="1" fill="none" fill-rule="evenodd">
        <g id="影像查看" transform="translate(-15.000000, -233.000000)">
            <g id="Group-11" transform="translate(15.000000, 233.000000)">
                <rect id="Rectangle" fill-rule="nonzero" x="0" y="0" width="15" height="15"></rect>
                <g id="文件" transform="translate(0.500000, 0.500000)">
                    <rect id="Rectangle" fill="#000000" opacity="0" x="0" y="0" width="14" height="14"></rect>
                    <path d="M12.25,0 L4.375,0 C3.89175084,-2.95904766e-17 3.5,0.391750844 3.5,0.875 L3.5,10.5 C3.5,10.9832492 3.89175084,11.375 4.375,11.375 L12.25,11.375 C12.7332492,11.375 13.125,10.9832492 13.125,10.5 L13.125,0.875 C13.125,0.391750844 12.7332492,2.95904766e-17 12.25,0 Z M11.375,9.625 L5.25,9.625 L5.25,1.75 L11.375,1.75 L11.375,9.625 Z" id="Shape" fill="#1FA2FF" fill-rule="nonzero"></path>
                    <path d="M8.75,12.25 L2.625,12.25 L2.625,4.375 C2.625,3.89175084 2.23324916,3.5 1.75,3.5 C1.26675084,3.5 0.875,3.89175084 0.875,4.375 L0.875,13.125 C0.875,13.6082492 1.26675084,14 1.75,14 L8.75,14 C9.23324916,14 9.625,13.6082492 9.625,13.125 C9.625,12.6417508 9.23324916,12.25 8.75,12.25 Z M7,4.375 L9.625,4.375 C10.1082492,4.375 10.5,3.98324916 10.5,3.5 C10.5,3.01675084 10.1082492,2.625 9.625,2.625 L7,2.625 C6.51675084,2.625 6.125,3.01675084 6.125,3.5 C6.125,3.98324916 6.51675084,4.375 7,4.375 Z M7,7 L9.625,7 C10.1082492,7 10.5,6.60824916 10.5,6.125 C10.5,5.64175084 10.1082492,5.25 9.625,5.25 L7,5.25 C6.51675084,5.25 6.125,5.64175084 6.125,6.125 C6.125,6.60824916 6.51675084,7 7,7 Z" id="Shape" fill="#1FA2FF" fill-rule="nonzero"></path>
                </g>
            </g>
        </g>
    </g>
</svg>